<?xml version="1.0" standalone="no"?>
<!DOCTYPE svg PUBLIC "-//W3C//DTD SVG 20010904//EN"
 "http://www.w3.org/TR/2001/REC-SVG-20010904/DTD/svg10.dtd">
<svg version="1.0" xmlns="http://www.w3.org/2000/svg"
 width="350.000000pt" height="350.000000pt" viewBox="0 0 350.000000 350.000000"
 preserveAspectRatio="xMidYMid meet">

<g transform="translate(0.000000,350.000000) scale(0.100000,-0.100000)"
fill="#000000" stroke="none">
<path d="M640 1729 c-139 -13 -236 -43 -269 -83 -21 -25 11 -68 117 -155 54
-44 104 -91 111 -105 31 -57 -16 -107 -152 -162 l-82 -33 120 -1 c97 0 125 3
145 17 22 16 23 16 17 0 -6 -15 4 -17 87 -17 l94 0 30 38 c43 55 52 76 52 125
0 60 -25 80 -205 168 -78 37 -147 75 -154 83 -33 40 15 67 179 100 67 13 124
27 127 30 8 8 -111 5 -217 -5z m-75 -44 c-16 -8 -39 -14 -50 -14 -15 1 -13 4
10 14 17 8 39 14 50 14 15 -1 13 -4 -10 -14z m-90 -69 c0 -34 -3 -42 -12 -34
-16 13 -17 50 -1 66 7 7 12 12 13 12 0 0 0 -20 0 -44z m85 -96 c22 -19 29 -30
19 -30 -8 0 -28 14 -44 30 -37 38 -21 38 25 0z m96 -71 c19 -11 34 -25 34 -29
0 -10 -67 26 -76 41 -9 15 6 10 42 -12z m126 -94 c7 -16 7 -28 -1 -41 -9 -17
-10 -16 -11 7 0 14 -9 34 -20 44 -11 10 -20 22 -20 27 0 16 41 -13 52 -37z
m-57 -100 c-17 -13 -37 -24 -44 -25 -16 0 -13 4 33 38 39 30 48 18 11 -13z"/>
</g>
</svg>
